<svg width="116" height="116" viewBox="0 0 116 116" fill="none" xmlns="http://www.w3.org/2000/svg">
<path fill-rule="evenodd" clip-rule="evenodd" d="M58.0002 9.66669C60.0023 9.66669 61.6252 11.2897 61.6252 13.2917V18.125C61.6252 20.1271 60.0023 21.75 58.0002 21.75C55.9982 21.75 54.3752 20.1271 54.3752 18.125V13.2917C54.3752 11.2897 55.9982 9.66669 58.0002 9.66669ZM87.0002 58C87.0002 74.0163 74.0165 87 58.0002 87C41.984 87 29.0002 74.0163 29.0002 58C29.0002 41.9838 41.984 29 58.0002 29C74.0165 29 87.0002 41.9838 87.0002 58ZM61.6252 97.875C61.6252 95.873 60.0023 94.25 58.0002 94.25C55.9982 94.25 54.3752 95.873 54.3752 97.875V102.708C54.3752 104.71 55.9982 106.333 58.0002 106.333C60.0023 106.333 61.6252 104.71 61.6252 102.708V97.875ZM16.1428 33.8334C17.1438 32.0996 19.3608 31.5056 21.0946 32.5066L25.2804 34.9233C27.0142 35.9243 27.6083 38.1413 26.6073 39.8751C25.6063 41.6089 23.3892 42.203 21.6554 41.2019L17.4696 38.7853C15.7358 37.7843 15.1418 35.5672 16.1428 33.8334ZM94.3451 74.7983C92.6113 73.7972 90.3943 74.3913 89.3933 76.1251C88.3923 77.8589 88.9863 80.0759 90.7201 81.077L94.9059 83.4936C96.6397 84.4946 98.8567 83.9006 99.8577 82.1668C100.859 80.433 100.265 78.216 98.5309 77.2149L94.3451 74.7983ZM99.8576 33.8333C100.859 35.5671 100.265 37.7841 98.5308 38.7851L94.345 41.2018C92.6112 42.2028 90.3942 41.6087 89.3932 39.8749C88.3921 38.1411 88.9862 35.9241 90.72 34.9231L94.9058 32.5064C96.6396 31.5054 98.8566 32.0995 99.8576 33.8333ZM25.2803 81.0768C27.0141 80.0758 27.6082 77.8587 26.6072 76.1249C25.6061 74.3911 23.3891 73.7971 21.6553 74.7981L17.4695 77.2148C15.7357 78.2158 15.1417 80.4328 16.1427 82.1666C17.1437 83.9004 19.3607 84.4945 21.0945 83.4934L25.2803 81.0768Z" fill="#252525"/>
</svg>
