<svg width="106" height="106" viewBox="0 0 106 106" fill="none" xmlns="http://www.w3.org/2000/svg">
<path fill-rule="evenodd" clip-rule="evenodd" d="M69.5625 88.3334H79.5C89.257 88.3334 97.1667 80.4237 97.1667 70.6667V61.8334C97.1667 37.4408 77.3926 17.6667 53 17.6667C28.6074 17.6667 8.83331 37.4408 8.83331 61.8334V70.6667C8.83331 80.4237 16.743 88.3334 26.5 88.3334H36.4375C36.4375 79.8434 42.8254 72.8455 51.0571 71.8836L63.4095 51.2963C64.3507 49.7275 66.3855 49.2188 67.9542 50.1601C69.5229 51.1013 70.0316 53.1361 69.0904 54.7048L58.3258 72.6457C64.8603 74.8635 69.5625 81.0493 69.5625 88.3334ZM43.0625 88.3334C43.0625 82.8694 47.4722 78.4354 52.9269 78.3961C52.9741 78.3971 53.0212 78.3971 53.0683 78.3961C58.5252 78.4328 62.9375 82.8678 62.9375 88.3334H43.0625ZM31.7876 45.9663C35.9615 39.5163 42.2231 34.2292 53 34.2292C63.7769 34.2292 70.0385 39.5163 74.2124 45.9663C75.2063 47.5022 77.2571 47.9416 78.793 46.9477C80.3289 45.9538 80.7683 43.903 79.7744 42.3671C74.7087 34.5389 66.5692 27.6042 53 27.6042C39.4308 27.6042 31.2913 34.5389 26.2256 42.3671C25.2317 43.903 25.6711 45.9538 27.207 46.9477C28.7429 47.9416 30.7937 47.5022 31.7876 45.9663Z" fill="#252525"/>
</svg>
